<svg xmlns="http://www.w3.org/2000/svg" xml:space="preserve" width="676.03821" height="200" viewBox="0 0 676.0382 200"><path d="M432.849 302.996v-64.722h-11.961v29.477h-.611a4.798 4.798 0 0 0-4.168-2.438h-38.577a4.785 4.785 0 0 1-4.78-4.79v-22.249h-11.96v64.722h11.96v-28.159h.613a4.797 4.797 0 0 0 4.167 2.437h38.565a4.788 4.788 0 0 1 4.79 4.791v20.931zM528.022 302.992l-10.372-53.02c-.06-.303-.237-1.218-1.48-1.246-1.249-.037-1.46.881-1.532 1.18l-10.916 45.396c-1.281 5.324-5.811 8.901-11.283 8.917-5.48.011-10.161-3.994-11.443-9.322l-10.828-45.031c-.07-.291-.283-1.173-1.472-1.173h-.052c-1.236.026-1.413.938-1.47 1.239l-10.38 53.06h-11.452l10.805-55.217c1.18-6.038 6.104-10.185 12.256-10.316.1-.003.2-.003.3-.003 6.015 0 10.975 3.9 12.39 9.783 0 0 7.922 33.017 10.508 43.737.203.847 1.4.845 1.603 0 2.576-10.716 10.51-43.697 10.51-43.697 1.413-5.888 6.374-9.79 12.398-9.79l.3.002c6.155.133 11.083 4.282 12.266 10.323l10.795 55.178zM311.764 247.83c-15.377 0-26.39 10.227-26.39 22.799 0 12.57 11.013 22.795 26.39 22.795 15.376 0 26.39-10.224 26.39-22.795 0-12.572-11.014-22.8-26.39-22.8m0 56.43c-22.882 0-37.884-15.086-37.884-33.632 0-18.543 15.003-33.631 37.884-33.631 22.882 0 37.884 15.088 37.884 33.631 0 18.546-15.002 33.632-37.884 33.632M252.772 270.626c0-11.85-9.51-21.49-21.204-21.49H207.13v42.982h24.437c11.693 0 21.204-9.641 21.204-21.49zm-20.205 32.365h-29.533a7.204 7.204 0 0 1-7.205-7.204v-50.32a7.204 7.204 0 0 1 7.205-7.205h29.533c17.844 0 32.354 14.52 32.354 32.365 0 17.844-14.51 32.364-32.354 32.364M578.863 266.9a41.256 41.256 0 0 1-17.204-3.757l12.477 26.801c1.304 2.795 3.947 3.01 4.728 3.01.778 0 3.424-.215 4.726-3.01l12.476-26.8a41.27 41.27 0 0 1-17.203 3.755m14.974 27.816c-2.741 5.887-8.479 9.545-14.973 9.545-6.496 0-12.233-3.658-14.976-9.545l-26.274-56.44h12.498c5.71 10.78 16.454 18.067 28.75 18.067 12.298 0 23.043-7.287 28.755-18.068h12.498z" style="fill:#003f44;fill-opacity:1;fill-rule:nonzero;stroke:none;stroke-width:.95132" transform="matrix(1.33333 0 0 -1.33333 -205.943 460.833)"/></svg>